<svg xmlns="http://www.w3.org/2000/svg" viewBox="0 0 162 136" width="162" height="136">
  <style id="style3356">
    .head, .body, .hindlimb-second, .foot {
      fill: rgb(132, 189, 0);
    }
    .forelimb, .first-toe, .second-toe, .third-toe, .hindlimb-first {
      fill: rgb(167, 213, 0);
    }
    .center-stripe, .hindlimb-third {
      fill: rgb(84, 146, 0);
    }
  </style>
  <g id="left-half-def">
    <path class="head" d="M 80.95,2.827 C 76.575,2.395 30.015,54.22 30.015,54.22 l 17.201,21.661 z" id="path3358" />
    <path class="body" d="M 34.499,109.709 77.779,14.768 V 134.516 Z" id="path3360" />
    <path class="center-stripe" d="m 80.402,9.112 h 0.548 v 127.225 l -3.171,-1.821 V 14.768 Z" id="path3362" />
    <path class="center-stripe" d="m 80.95,136.337 -3.171,-1.821 V 14.768 l 2.623,-5.656 h 0.548 z" id="path3364" />
    <path class="forelimb" d="M 28.473,51.545 47.75,31.06 30.837,28.98 Z" id="path3366" />
    <path class="first-toe" d="M 33.71,27.168 47.971,11.58 41.571,28.063 Z" id="path3368" />
    <path class="second-toe" d="M 37.563,19.132 31.993,13.184 34.644,0 l 6.61,15.132 z" id="path3370" />
    <path class="third-toe" d="M 31.463,26.207 22.135,5.884 35.95,20.859 Z" id="path3372" />
    <path class="hindlimb-first" d="M 33.153,106.835 21.269,86.614 41.38,89.218 Z" id="path3374" />
    <path class="hindlimb-second" d="m 19.005,87.743 -5.2,22.166 18.249,-0.076 z" id="path3376" />
    <path class="hindlimb-third" d="m 47.966,120.204 -24.08,-0.12 -9.971,-8.004 19.356,0.073 z" id="path3378" />
    <path class="foot" d="M 15.52,117.01 0,135.967 l 41.224,-1.406 6.106,-11.917 -24.445,0.22 z" id="path3380" />
  </g>
  <g id="g11935">
    <g id="g11678">
      <path class="head" d="M 80.95,2.827 C 76.575,2.395 30.015,54.22 30.015,54.22 l 17.201,21.661 z" id="path10911" />
      <path class="body" d="M 34.499,109.709 77.779,14.768 V 134.516 Z" id="path10913" />
      <path class="center-stripe" d="m 80.402,9.112 h 0.548 v 127.225 l -3.171,-1.821 V 14.768 Z" id="path10915" />
      <path class="forelimb" d="M 28.473,51.545 47.75,31.06 30.837,28.98 Z" id="path10919" />
      <path class="first-toe" d="M 33.71,27.168 47.971,11.58 41.571,28.063 Z" id="path10921" />
      <path class="second-toe" d="M 37.563,19.132 31.993,13.184 34.644,0 l 6.61,15.132 z" id="path10923" />
      <path class="third-toe" d="M 31.463,26.207 22.135,5.884 35.95,20.859 Z" id="path10925" />
      <path class="hindlimb-first" d="M 33.153,106.835 21.269,86.614 41.38,89.218 Z" id="path10927" />
      <path class="hindlimb-second" d="m 19.005,87.743 -5.2,22.166 18.249,-0.076 z" id="path10929" />
      <path class="hindlimb-third" d="m 47.966,120.204 -24.08,-0.12 -9.971,-8.004 19.356,0.073 z" id="path10931" />
      <path class="foot" d="M 15.52,117.01 0,135.967 l 41.224,-1.406 6.106,-11.917 -24.445,0.22 z" id="path10933" />
      <path class="head" d="M 80.95,2.827 C 85.325,2.395 131.885,54.22 131.885,54.22 L 114.684,75.881 Z" id="path10937" />
      <path class="body" d="M 127.401,109.709 84.121,14.768 v 119.748 z" id="path10939" />
      <path class="center-stripe" d="M 81.498,9.112 H 80.95 v 127.225 l 3.171,-1.821 V 14.768 Z" id="path10941" />
      <path id="path10943" class="center-stripe" d="M 77.779,134.516 V 14.768 l 2.623,-5.656 h 1.096 l 2.623,5.656 v 119.748 l -3.171,1.821 z" />
      <path class="forelimb" d="M 133.427,51.545 114.15,31.06 131.063,28.98 Z" id="path10945" />
      <path class="first-toe" d="m 128.19,27.168 -14.261,-15.588 6.4,16.483 z" id="path10947" />
      <path class="second-toe" d="m 124.337,19.132 5.57,-5.948 L 127.256,0 l -6.61,15.132 z" id="path10949" />
      <path class="third-toe" d="M 130.437,26.207 139.765,5.884 125.95,20.859 Z" id="path10951" />
      <path class="hindlimb-first" d="M 128.747,106.835 140.631,86.614 120.52,89.218 Z" id="path10953" />
      <path class="hindlimb-second" d="m 142.895,87.743 5.2,22.166 -18.249,-0.076 z" id="path10955" />
      <path class="hindlimb-third" d="m 113.934,120.204 24.08,-0.12 9.971,-8.004 -19.356,0.073 z" id="path10957" />
      <path class="foot" d="m 146.38,117.01 15.52,18.957 -41.224,-1.406 -6.106,-11.917 24.445,0.22 z" id="path10959" />
    </g>
  </g>
</svg>
