<?xml version="1.0" encoding="utf-8"?>
<!-- Generator: Adobe Illustrator 28.1.0, SVG Export Plug-In . SVG Version: 6.00 Build 0)  -->
<svg version="1.1" id="Layer_1" xmlns="http://www.w3.org/2000/svg" xmlns:xlink="http://www.w3.org/1999/xlink" x="0px" y="0px"
     viewBox="0 0 128 107.7" style="enable-background:new 0 0 128 107.7;" xml:space="preserve">
<style type="text/css">
	.st0{fill:#FFFFFF;}
</style>
  <g>
	<path class="st0" d="M63.8,4.4C67.1,4.1,102,43,102,43L89.1,59.2L63.8,4.4z"/>
    <polygon class="st0" points="99.7,82.4 108.6,67.3 93.5,69.2 	"/>
    <polygon class="st0" points="110.3,68.1 114.2,84.7 100.5,84.7 	"/>
    <polygon class="st0" points="112.9,90.1 124.5,104.3 93.6,103.2 89,94.3 107.4,94.5 	"/>
    <polygon class="st0" points="88.6,92.5 106.6,92.4 114.1,86.4 99.6,86.4 	"/>
    <polygon class="st0" points="103.2,41 88.7,25.6 101.4,24 	"/>
    <polygon class="st0" points="100.9,22 107.9,6.7 97.6,17.9 	"/>
    <polygon class="st0" points="99.2,22.7 88.5,11 93.3,23.4 	"/>
    <polygon class="st0" points="96.4,16.7 100.5,12.2 98.5,2.3 93.6,13.7 	"/>
    <polygon class="st0" points="98.7,84.6 66.2,13.4 66.2,103.2 	"/>
    <path class="st0" d="M63.7,4.4C60.5,4.1,25.5,43,25.5,43l12.9,16.2L63.7,4.4z"/>
    <polygon class="st0" points="27.9,82.4 19,67.3 34.1,69.2 	"/>
    <polygon class="st0" points="17.3,68.1 13.4,84.7 27.1,84.7 	"/>
    <polygon class="st0" points="14.7,90.1 3,104.3 33.9,103.2 38.5,94.3 20.2,94.5 	"/>
    <polygon class="st0" points="39,92.5 20.9,92.4 13.5,86.4 28,86.4 	"/>
    <polygon class="st0" points="24.4,41 38.8,25.6 26.1,24 	"/>
    <polygon class="st0" points="26.6,22 19.6,6.7 30,17.9 	"/>
    <polygon class="st0" points="28.3,22.7 39,11 34.2,23.4 	"/>
    <polygon class="st0" points="31.2,16.7 27,12.2 29,2.3 34,13.7 	"/>
    <polygon class="st0" points="28.9,84.6 61.4,13.4 61.4,103.2 	"/>
</g>
</svg>
